<svg width="51" height="51" viewBox="0 0 51 51" fill="none" xmlns="http://www.w3.org/2000/svg">
<g clip-path="url(#clip0_50_70)">
<path d="M40.9479 20.8842H36.1367V17.642C36.1367 16.833 35.4809 16.1771 34.6719 16.1771H1.72266C0.913672 16.1771 0.257812 16.833 0.257812 17.642V44.3151C0.257812 45.1241 0.913672 45.78 1.72266 45.78H6.71094C8.30508 52.0183 17.1088 52.0141 18.7005 45.78H31.815C33.4092 52.0183 42.2129 52.0141 43.8046 45.78H48.793C49.602 45.78 50.2578 45.1241 50.2578 44.3151V30.194C50.2578 25.0605 46.0813 20.8842 40.9479 20.8842ZM12.7058 47.5573C10.918 47.5573 9.46357 46.1028 9.46357 44.3151C9.6416 40.0139 15.7706 40.0152 15.948 44.3151C15.948 46.1028 14.4935 47.5573 12.7058 47.5573ZM33.207 40.2092C32.5444 40.9511 32.0587 41.8535 31.815 42.8502H18.7005C17.1063 36.6119 8.30264 36.6161 6.71094 42.8502H3.1875V19.1067H33.207V40.2092ZM37.8099 47.5573C36.0221 47.5573 34.5677 46.1028 34.5677 44.3151C34.7457 40.0139 40.8747 40.0152 41.0521 44.3151C41.0521 46.1028 39.5977 47.5573 37.8099 47.5573ZM47.3281 42.8503H43.8063C43.1469 40.1518 40.7086 38.1432 37.81 38.1432H36.1367V23.8138H39.4831V33.3321C39.4831 34.1411 40.139 34.7969 40.9479 34.7969H47.3281V42.8503ZM47.3281 31.8672H42.4128V23.9835C45.2271 24.6472 47.3281 27.18 47.3281 30.194V31.8672Z" fill="#244D4D"/>
<path d="M36.2406 12.8307H40.1631C42.1067 12.7532 42.1052 9.97766 40.1631 9.901H37.9698L38.266 8.12366H40.1631C42.1067 8.04622 42.1052 5.27063 40.1631 5.19397H38.7542L39.0504 3.41663H41.7321C43.6756 3.33918 43.6742 0.563599 41.7321 0.486938H37.8095C37.0934 0.486938 36.4823 1.00461 36.3646 1.71096L34.7957 11.125C34.6468 12.0181 35.3367 12.8307 36.2406 12.8307Z" fill="#222222"/>
<path d="M26.8267 12.8307H30.7492C32.6928 12.7532 32.6913 9.97766 30.7492 9.901H28.5559L28.8521 8.12366H30.7492C32.6928 8.04622 32.6913 5.27063 30.7492 5.19397H29.3404L29.6367 3.41663H32.3183C34.2618 3.33918 34.2604 0.563599 32.3183 0.486938H28.3958C27.6797 0.486938 27.0686 1.00461 26.9509 1.71096L25.3818 11.125C25.233 12.0181 25.9229 12.8307 26.8267 12.8307Z" fill="#244D4D"/>
<path d="M15.603 12.8108C16.7403 13.0003 17.2207 12.0149 17.2888 11.6067L17.529 10.1655L20.4129 12.5036C21.0795 13.044 21.9955 12.8778 22.4733 12.2883C22.9829 11.6599 22.8864 10.7374 22.258 10.228L20.63 8.90813H21.9889C22.7049 8.90813 23.316 8.39045 23.4338 7.6842L24.3493 2.1927C24.4981 1.29954 23.8083 0.486938 22.9044 0.486938H17.4129C16.6968 0.486938 16.0856 1.00461 15.968 1.71096L15.0589 7.16506C15.0585 7.16702 15.0583 7.16907 15.0579 7.17102C15.0571 7.17493 15.0566 7.17883 15.056 7.18274C15.0527 7.20061 15.0495 7.21858 15.047 7.23665L14.3988 11.125C14.2658 11.923 14.805 12.6778 15.603 12.8108ZM18.6538 3.41663H21.1751L20.748 5.97844H18.2268L18.6538 3.41663Z" fill="#244D4D"/>
<path d="M6.97331 12.8108C8.11062 13.0003 8.59099 12.0148 8.65905 11.6067L9.10876 8.90825H11.1366C13.0801 8.83081 13.0787 6.05522 11.1366 5.97856H9.59704L10.024 3.41675H12.7056C14.6492 3.33931 14.6477 0.563721 12.7056 0.487061H8.78308C8.06696 0.487061 7.45583 1.00474 7.33815 1.71108L5.76921 11.1251C5.6361 11.923 6.17526 12.6778 6.97331 12.8108Z" fill="#244D4D"/>
</g>
<defs>
<clipPath id="clip0_50_70">
<rect width="50" height="50" fill="white" transform="translate(0.257812 0.472046)"/>
</clipPath>
</defs>
</svg>
