<svg width="25" height="25" viewBox="0 0 25 25" fill="none" xmlns="http://www.w3.org/2000/svg">
<g clip-path="url(#clip0_50_158)">
<path d="M2.45739 13.5139H22.474C23.299 13.5139 23.9677 12.8451 23.9677 12.0201C23.9677 11.1951 23.299 10.5264 22.474 10.5264H2.45739C1.63239 10.5264 0.963623 11.1951 0.963623 12.0201C0.963576 12.8451 1.63239 13.5139 2.45739 13.5139Z" fill="#666666"/>
<path d="M13.9596 7.30444C13.5236 7.30444 13.1689 7.6591 13.1689 8.09508V9.1201H19.288V8.09508C19.288 7.6591 18.9333 7.30444 18.4973 7.30444H13.9596Z" fill="#666666"/>
<path d="M4.23684 8.09508C4.23684 6.88369 5.22234 5.89819 6.43373 5.89819H10.9715C11.5479 5.89819 12.0729 6.12169 12.4652 6.48619C12.8575 6.12169 13.3825 5.89819 13.959 5.89819H18.4967C19.7081 5.89819 20.6936 6.88369 20.6936 8.09508V9.12009H22.9759V4.27697C22.9759 3.45197 22.3071 2.7832 21.4822 2.7832H3.44836C2.62336 2.7832 1.95459 3.45197 1.95459 4.27697V9.12009H4.23684V8.09508Z" fill="#666666"/>
<path d="M6.43444 7.30444C5.99846 7.30444 5.6438 7.6591 5.6438 8.09508V9.1201H11.7628V8.09508C11.7628 7.6591 11.4082 7.30444 10.9722 7.30444H6.43444Z" fill="#666666"/>
<path d="M0.46582 14.9202V21.3897H1.87207V18.8258H23.0596V21.3897H24.4658V14.9202H0.46582Z" fill="#666666"/>
</g>
<defs>
<clipPath id="clip0_50_158">
<rect width="24" height="24" fill="white" transform="translate(0.46582 0.0864258)"/>
</clipPath>
</defs>
</svg>
