<svg width="25" height="25" viewBox="0 0 25 25" fill="none" xmlns="http://www.w3.org/2000/svg">
<g clip-path="url(#clip0_50_135)">
<path d="M20.0872 10.3102C20.3681 10.3102 20.5958 10.0826 20.5958 9.80166V8.1702C20.5958 7.88931 20.3681 7.66162 20.0872 7.66162L19.3633 7.66603L16.988 10.3102H20.0872Z" fill="#666666"/>
<path d="M4.84232 10.3102H7.96584L5.54939 7.66162H4.84232C4.56143 7.66162 4.33374 7.88931 4.33374 8.17021V9.80153C4.33374 10.0825 4.56143 10.3102 4.84232 10.3102Z" fill="#666666"/>
<path d="M12.7564 12.9328L17.4696 7.66162H7.45996L12.2506 12.9348C12.3864 13.0843 12.6217 13.0834 12.7564 12.9328Z" fill="#666666"/>
<path d="M14.0834 20.3508H13.2078V14.4322C12.9978 14.5535 12.7578 14.6197 12.5102 14.6207C12.5084 14.6207 12.5065 14.6207 12.5047 14.6207C12.2553 14.6207 12.0132 14.5543 11.8015 14.4321V20.3508H10.8462C10.4579 20.3508 10.1431 20.6656 10.1431 21.054C10.1431 21.4423 10.4579 21.7572 10.8462 21.7572H14.0835C14.4718 21.7572 14.7866 21.4423 14.7866 21.054C14.7866 20.6656 14.4718 20.3508 14.0834 20.3508Z" fill="#666666"/>
<path d="M6.39551 12.2666H1.87217V3.93145C1.87217 3.54311 1.55734 3.22827 1.169 3.22827C0.780656 3.22827 0.46582 3.54311 0.46582 3.93145V21.1104C0.46582 21.4987 0.780656 21.8135 1.169 21.8135C1.55734 21.8135 1.87217 21.4987 1.87217 21.1104V15.858H6.98487V21.1104C6.98487 21.4987 7.2997 21.8135 7.68805 21.8135C8.07639 21.8135 8.39122 21.4987 8.39122 21.1104V14.2623C8.39122 13.1618 7.49594 12.2666 6.39551 12.2666Z" fill="#666666"/>
<path d="M23.7624 3.22827C23.3741 3.22827 23.0593 3.54311 23.0593 3.93145V12.2666H18.6407C17.5403 12.2666 16.645 13.1619 16.645 14.2623V21.1104C16.645 21.4987 16.9599 21.8135 17.3482 21.8135C17.7365 21.8135 18.0514 21.4987 18.0514 21.1104V15.8569H23.0593V21.1104C23.0593 21.4987 23.3742 21.8135 23.7625 21.8135C24.1508 21.8135 24.4657 21.4987 24.4657 21.1104V3.93145C24.4656 3.54311 24.1508 3.22827 23.7624 3.22827Z" fill="#666666"/>
</g>
<defs>
<clipPath id="clip0_50_135">
<rect width="24" height="24" fill="white" transform="translate(0.46582 0.520996)"/>
</clipPath>
</defs>
</svg>
