<svg width="17" height="17" viewBox="0 0 17 17" fill="none" xmlns="http://www.w3.org/2000/svg">
<g clip-path="url(#clip0_50_537)">
<path d="M10.6235 8.44804L16.0175 11.858V4.89404L10.6235 8.44804Z" fill="#7F7F7F"/>
<path d="M0.0175781 4.89404V11.858L5.41158 8.44804L0.0175781 4.89404Z" fill="#7F7F7F"/>
<path d="M15.0176 2.86621H1.01761C0.518607 2.86621 0.122607 3.23821 0.0476074 3.71721L8.01761 8.96821L15.9876 3.71721C15.9126 3.23821 15.5166 2.86621 15.0176 2.86621Z" fill="#7F7F7F"/>
<path d="M9.70756 9.05227L8.29256 9.98427C8.20856 10.0393 8.11356 10.0663 8.01756 10.0663C7.92156 10.0663 7.82656 10.0393 7.74256 9.98427L6.32756 9.05127L0.0495605 13.0223C0.126561 13.4973 0.520561 13.8663 1.01756 13.8663H15.0176C15.5146 13.8663 15.9086 13.4973 15.9856 13.0223L9.70756 9.05227Z" fill="#7F7F7F"/>
</g>
<defs>
<clipPath id="clip0_50_537">
<rect width="16" height="16" fill="white" transform="translate(0.0175781 0.366211)"/>
</clipPath>
</defs>
</svg>
