<svg width="20" height="21" viewBox="0 0 20 21" fill="none" xmlns="http://www.w3.org/2000/svg">
<g clip-path="url(#clip0_50_602)">
<path d="M10.0019 20.9251C15.5247 20.9251 20.0018 16.448 20.0018 10.9252C20.0018 5.40241 15.5247 0.925293 10.0019 0.925293C4.47907 0.925293 0.00195312 5.40241 0.00195312 10.9252C0.00195312 16.448 4.47907 20.9251 10.0019 20.9251Z" fill="white"/>
<path d="M16.1264 8.1121C15.6979 8.30212 15.2369 8.43064 14.7535 8.48804C15.2471 8.19231 15.6259 7.72439 15.8047 7.1659C15.3428 7.43989 14.831 7.63864 14.2868 7.74578C13.8508 7.28142 13.2295 6.99121 12.5416 6.99121C11.2218 6.99121 10.1514 8.06165 10.1514 9.38147C10.1514 9.56882 10.1726 9.75118 10.2136 9.92623C8.22709 9.82658 6.46572 8.87504 5.28673 7.42848C5.08102 7.78143 4.96301 8.19231 4.96301 8.63029C4.96301 9.45937 5.3853 10.1913 6.02632 10.6198C5.63468 10.6075 5.26587 10.5 4.94376 10.3205C4.94358 10.3307 4.94358 10.3409 4.94358 10.3508C4.94358 11.509 5.76784 12.475 6.8611 12.6944C6.66074 12.7493 6.44914 12.7784 6.23149 12.7784C6.07712 12.7784 5.92756 12.7636 5.78175 12.7357C6.08586 13.6852 6.96841 14.3763 8.01461 14.3957C7.1964 15.0369 6.16589 15.4189 5.04572 15.4189C4.8532 15.4189 4.66247 15.4077 4.47583 15.3854C5.53308 16.0638 6.7898 16.4594 8.13956 16.4594C12.5361 16.4594 14.9405 12.8172 14.9405 9.65831C14.9405 9.55474 14.9381 9.45153 14.9335 9.34921C15.4009 9.0123 15.8061 8.59143 16.1264 8.1121Z" fill="#305F64"/>
</g>
<defs>
<clipPath id="clip0_50_602">
<rect width="20" height="20" fill="white" transform="translate(0.000976562 0.925293)"/>
</clipPath>
</defs>
</svg>
