<svg width="25" height="25" viewBox="0 0 25 25" fill="none" xmlns="http://www.w3.org/2000/svg">
<g clip-path="url(#clip0_50_123)">
<path d="M0.471436 24.7522H10.3574V19.083H0.471436V24.7522ZM2.63359 20.5511H8.24209V21.9567H2.63359V20.5511Z" fill="#666666"/>
<path d="M0.471436 17.6773H10.3574V12.1018H0.471436V17.6773ZM2.63359 13.5974H8.24209V15.003H2.63359V13.5974Z" fill="#666666"/>
<path d="M11.7632 24.7521H24.4604V12.1018H11.7632V24.7521ZM20.1967 13.5974H21.6023V15.0377H20.1967V13.5974ZM17.3856 13.5974H18.7912V15.0377H17.3856V13.5974ZM14.5744 13.5974H15.98V15.0377H14.5744V13.5974ZM14.5744 16.2951H21.6023V21.941H14.5744V16.2951Z" fill="#666666"/>
<path d="M20.1967 3.99271V0.752197H15.98V3.99506L11.7632 6.8062V9.29071H24.4604V6.80385L20.1967 3.99271Z" fill="#666666"/>
</g>
<defs>
<clipPath id="clip0_50_123">
<rect width="24" height="24" fill="white" transform="translate(0.46582 0.752197)"/>
</clipPath>
</defs>
</svg>
