<svg width="11" height="11" viewBox="0 0 11 11" fill="none" xmlns="http://www.w3.org/2000/svg">
<g clip-path="url(#clip0_115_325)">
<path d="M5.9414 10.0618C5.79903 10.0618 5.66178 10.0102 5.55482 9.91655C5.15084 9.56331 4.76136 9.23135 4.41773 8.93854L4.41598 8.93701C3.40852 8.07848 2.53854 7.33705 1.93323 6.60669C1.25658 5.7902 0.941406 5.01604 0.941406 4.17033C0.941406 3.34864 1.22316 2.59059 1.73471 2.0357C2.25236 1.47426 2.96266 1.16504 3.73498 1.16504C4.31222 1.16504 4.84086 1.34753 5.30617 1.70741C5.54101 1.88907 5.75387 2.11139 5.9414 2.37071C6.129 2.11139 6.34179 1.88907 6.57669 1.70741C7.04201 1.34753 7.57065 1.16504 8.14789 1.16504C8.92014 1.16504 9.63051 1.47426 10.1482 2.0357C10.6597 2.59059 10.9414 3.34864 10.9414 4.17033C10.9414 5.01604 10.6263 5.7902 9.94964 6.60662C9.34433 7.33705 8.47443 8.0784 7.46712 8.93686C7.12288 9.23013 6.73279 9.56262 6.3279 9.9167C6.22101 10.0102 6.08368 10.0618 5.9414 10.0618ZM3.73498 1.75082C3.12822 1.75082 2.57081 1.99298 2.16531 2.43274C1.75378 2.87913 1.52711 3.4962 1.52711 4.17033C1.52711 4.88162 1.79147 5.51775 2.3842 6.23293C2.95709 6.92423 3.80921 7.65039 4.79585 8.49123L4.79768 8.49275C5.1426 8.78671 5.53361 9.11996 5.94056 9.4758C6.34995 9.11928 6.74157 8.78549 7.08718 8.49108C8.07373 7.65024 8.92578 6.92423 9.49867 6.23293C10.0913 5.51775 10.3557 4.88162 10.3557 4.17033C10.3557 3.4962 10.129 2.87913 9.71748 2.43274C9.31206 1.99298 8.75458 1.75082 8.14789 1.75082C7.7034 1.75082 7.29531 1.89212 6.93497 2.17074C6.61385 2.41916 6.39016 2.73318 6.25901 2.95291C6.19156 3.0659 6.07285 3.13334 5.9414 3.13334C5.80994 3.13334 5.69123 3.0659 5.62379 2.95291C5.49271 2.73318 5.26902 2.41916 4.94782 2.17074C4.58749 1.89212 4.17939 1.75082 3.73498 1.75082Z" fill="white"/>
</g>
<defs>
<clipPath id="clip0_115_325">
<rect width="10" height="9.99998" fill="white" transform="translate(0.941406 0.618164)"/>
</clipPath>
</defs>
</svg>
