<svg width="25" height="25" viewBox="0 0 25 25" fill="none" xmlns="http://www.w3.org/2000/svg">
<g clip-path="url(#clip0_115_148)">
<path d="M24.4658 7.20264V2.51514C24.4658 1.6105 23.7298 0.874512 22.8252 0.874512H14.3877C13.4831 0.874512 12.7471 1.6105 12.7471 2.51514V7.20264C12.7471 8.10728 13.4831 8.84326 14.3877 8.84326H16.2997L15.9481 10.2495H12.0127L11.8699 7.10687C11.8185 5.97775 10.8929 5.09326 9.76268 5.09326H5.88776C4.75751 5.09326 3.83191 5.97775 3.78054 7.10687L3.63771 10.2495H1.16895C0.780633 10.2495 0.46582 10.5643 0.46582 10.9526V23.1401C0.46582 23.5285 0.780633 23.8433 1.16895 23.8433C1.55726 23.8433 1.87207 23.5285 1.87207 23.1401V14.4683H3.47004C3.52123 15.0471 3.76418 15.5867 4.17345 16.015C4.5896 16.4505 5.12857 16.7194 5.71587 16.7916V17.9839C5.71587 18.8089 6.32815 19.4934 7.12212 19.6075V21.2972L4.35082 22.0891C4.0489 22.1753 3.84082 22.4512 3.84082 22.7651V24.1714C3.84082 24.5597 4.15563 24.8745 4.54395 24.8745C4.93226 24.8745 5.24707 24.5597 5.24707 24.1714V23.2955L7.12207 22.7597V23.7026C7.12207 24.091 7.43688 24.4058 7.8252 24.4058C8.21351 24.4058 8.52832 24.091 8.52832 23.7026V22.7598L10.4033 23.2955V24.1714C10.4033 24.5597 10.7181 24.8745 11.1064 24.8745C11.4948 24.8745 11.8096 24.5597 11.8096 24.1714V22.7651C11.8096 22.4512 11.6015 22.1753 11.2996 22.0891L8.52832 21.2973V19.6075C9.32229 19.4935 9.93457 18.809 9.93457 17.9839V16.7917C10.5219 16.7195 11.0608 16.4506 11.477 16.0151C11.8862 15.5868 12.1292 15.0472 12.1804 14.4683H13.6846V23.1402C13.6846 23.5285 13.9994 23.8433 14.3877 23.8433C14.776 23.8433 15.0908 23.5285 15.0908 23.1402V21.0308H23.0596V23.1402C23.0596 23.5285 23.3744 23.8433 23.7627 23.8433C24.151 23.8433 24.4658 23.5285 24.4658 23.1402V10.9526C24.4658 10.5643 24.151 10.2495 23.7627 10.2495H21.2648L20.9132 8.84326H22.8252C23.7298 8.84326 24.4658 8.10728 24.4658 7.20264ZM3.50984 13.062H1.87207V11.6558H3.57377L3.50984 13.062ZM8.52832 17.9839C8.52832 18.1131 8.42318 18.2183 8.29395 18.2183H7.35645C7.22721 18.2183 7.12207 18.1131 7.12207 17.9839V16.812H8.52832V17.9839ZM10.4603 15.0435C10.2371 15.2771 9.93616 15.4058 9.61306 15.4058H6.03738C5.71427 15.4058 5.41338 15.2771 5.19016 15.0435C4.9669 14.8099 4.85205 14.5034 4.86673 14.1806L5.18534 7.17067C5.20245 6.79436 5.51098 6.49951 5.88771 6.49951H9.76263C10.1394 6.49951 10.4479 6.79436 10.4651 7.17071L10.7837 14.1807C10.7984 14.5035 10.6835 14.8099 10.4603 15.0435ZM23.0596 19.6245H15.0908V14.4683H23.0596V19.6245ZM23.0596 11.6558V13.062H12.1406L12.0766 11.6558H23.0596ZM17.3976 10.2495L17.7491 8.84326H19.4637L19.8153 10.2495H17.3976ZM14.3877 7.43701C14.2585 7.43701 14.1533 7.33187 14.1533 7.20264V2.51514C14.1533 2.3859 14.2585 2.28076 14.3877 2.28076H22.8252C22.9544 2.28076 23.0596 2.3859 23.0596 2.51514V7.20264C23.0596 7.33187 22.9544 7.43701 22.8252 7.43701H14.3877Z" fill="white"/>
<path d="M17.6689 17.2808H20.4814C20.8698 17.2808 21.1846 16.9659 21.1846 16.5776C21.1846 16.1893 20.8698 15.8745 20.4814 15.8745H17.6689C17.2806 15.8745 16.9658 16.1893 16.9658 16.5776C16.9658 16.9659 17.2806 17.2808 17.6689 17.2808Z" fill="white"/>
</g>
<defs>
<clipPath id="clip0_115_148">
<rect width="24" height="24" fill="white" transform="translate(0.46582 0.874512)"/>
</clipPath>
</defs>
</svg>
