<svg width="11" height="11" viewBox="0 0 11 11" fill="none" xmlns="http://www.w3.org/2000/svg">
<g clip-path="url(#clip0_115_331)">
<path d="M8.87109 7.10254C8.29227 7.10254 7.77795 7.38383 7.45746 7.81682L4.69828 6.40676C4.74457 6.24949 4.76953 6.08318 4.76953 5.91113C4.76953 5.67811 4.72385 5.45559 4.64113 5.25189L7.53293 3.51443C7.85559 3.89314 8.33574 4.13379 8.87109 4.13379C9.84035 4.13379 10.6289 3.34523 10.6289 2.37598C10.6289 1.40672 9.84035 0.618164 8.87109 0.618164C7.90184 0.618164 7.11328 1.40672 7.11328 2.37598C7.11328 2.6 7.15549 2.81432 7.23223 3.01152L4.3332 4.75332C4.01078 4.38578 3.53791 4.15332 3.01172 4.15332C2.04246 4.15332 1.25391 4.94187 1.25391 5.91113C1.25391 6.88039 2.04246 7.66895 3.01172 7.66895C3.60004 7.66895 4.12172 7.3784 4.44096 6.93328L7.19213 8.33924C7.1409 8.50396 7.11328 8.67898 7.11328 8.86035C7.11328 9.82961 7.90184 10.6182 8.87109 10.6182C9.84035 10.6182 10.6289 9.82961 10.6289 8.86035C10.6289 7.89109 9.84035 7.10254 8.87109 7.10254ZM8.87109 1.2041C9.51727 1.2041 10.043 1.7298 10.043 2.37598C10.043 3.02215 9.51727 3.54785 8.87109 3.54785C8.22492 3.54785 7.69922 3.02215 7.69922 2.37598C7.69922 1.7298 8.22492 1.2041 8.87109 1.2041ZM3.01172 7.08301C2.36555 7.08301 1.83984 6.5573 1.83984 5.91113C1.83984 5.26496 2.36555 4.73926 3.01172 4.73926C3.65789 4.73926 4.18359 5.26496 4.18359 5.91113C4.18359 6.5573 3.65789 7.08301 3.01172 7.08301ZM8.87109 10.0322C8.22492 10.0322 7.69922 9.50652 7.69922 8.86035C7.69922 8.21418 8.22492 7.68848 8.87109 7.68848C9.51727 7.68848 10.043 8.21418 10.043 8.86035C10.043 9.50652 9.51727 10.0322 8.87109 10.0322Z" fill="black"/>
</g>
<defs>
<clipPath id="clip0_115_331">
<rect width="10" height="10" fill="white" transform="translate(0.941406 0.618164)"/>
</clipPath>
</defs>
</svg>
