<svg width="25" height="25" viewBox="0 0 25 25" fill="none" xmlns="http://www.w3.org/2000/svg">
<g clip-path="url(#clip0_50_170)">
<path d="M24.0908 8.05127H0.84082C0.633362 8.05127 0.46582 7.88373 0.46582 7.67627V6.17554C0.46582 5.96808 0.633362 5.80054 0.84082 5.80054H24.0908C24.2983 5.80054 24.4658 5.96808 24.4658 6.17554V7.67627C24.4658 7.88373 24.2983 8.05127 24.0908 8.05127ZM1.21582 7.30127H23.7158V6.55054H1.21582V7.30127Z" fill="#666666"/>
<path d="M1.21582 19.6831C1.00836 19.6831 0.84082 19.5156 0.84082 19.3081V7.74316C0.84082 7.53571 1.00836 7.36816 1.21582 7.36816C1.42328 7.36816 1.59082 7.53571 1.59082 7.74316V19.3081C1.59082 19.5156 1.42328 19.6831 1.21582 19.6831Z" fill="#666666"/>
<path d="M2.34082 19.6831C2.13336 19.6831 1.96582 19.5156 1.96582 19.3081V7.74316C1.96582 7.53571 2.13336 7.36816 2.34082 7.36816C2.54828 7.36816 2.71582 7.53571 2.71582 7.74316V19.3081C2.71582 19.5156 2.54828 19.6831 2.34082 19.6831Z" fill="#666666"/>
<path d="M22.5908 19.6831C22.3834 19.6831 22.2158 19.5156 22.2158 19.3081V7.74316C22.2158 7.53571 22.3834 7.36816 22.5908 7.36816C22.7983 7.36816 22.9658 7.53571 22.9658 7.74316V19.3081C22.9658 19.5156 22.7983 19.6831 22.5908 19.6831Z" fill="#666666"/>
<path d="M23.7158 19.6831C23.5084 19.6831 23.3408 19.5156 23.3408 19.3081V7.74316C23.3408 7.53571 23.5084 7.36816 23.7158 7.36816C23.9233 7.36816 24.0908 7.53571 24.0908 7.74316V19.3081C24.0908 19.5156 23.9233 19.6831 23.7158 19.6831Z" fill="#666666"/>
<path d="M2.34082 19.6831H1.21582C1.00836 19.6831 0.84082 19.5156 0.84082 19.3081C0.84082 19.1006 1.00836 18.9331 1.21582 18.9331H2.34082C2.54828 18.9331 2.71582 19.1006 2.71582 19.3081C2.71582 19.5156 2.54828 19.6831 2.34082 19.6831Z" fill="#666666"/>
<path d="M23.7158 19.6831H22.5908C22.3834 19.6831 22.2158 19.5156 22.2158 19.3081C22.2158 19.1006 22.3834 18.9331 22.5908 18.9331H23.7158C23.9233 18.9331 24.0908 19.1006 24.0908 19.3081C24.0908 19.5156 23.9233 19.6831 23.7158 19.6831Z" fill="#666666"/>
<path d="M22.5908 13.3059H2.34082C2.13336 13.3059 1.96582 13.1382 1.96582 12.9309C1.96582 12.7234 2.13336 12.5559 2.34082 12.5559H22.5908C22.7983 12.5559 22.9658 12.7234 22.9658 12.9309C22.9658 13.1382 22.7983 13.3059 22.5908 13.3059Z" fill="#666666"/>
<path d="M22.5908 14.4316H2.34082C2.13336 14.4316 1.96582 14.2639 1.96582 14.0566C1.96582 13.8492 2.13336 13.6816 2.34082 13.6816H22.5908C22.7983 13.6816 22.9658 13.8492 22.9658 14.0566C22.9658 14.2639 22.7983 14.4316 22.5908 14.4316Z" fill="#666666"/>
<path d="M3.84009 13.3066C3.63263 13.3066 3.46509 13.1389 3.46509 12.9316C3.46509 11.8976 4.30591 11.0566 5.33972 11.0566C5.547 11.0566 5.71472 11.2242 5.71472 11.4316C5.71472 11.6389 5.547 11.8066 5.33972 11.8066C4.71991 11.8066 4.21509 12.3113 4.21509 12.9316C4.21509 13.1389 4.04736 13.3066 3.84009 13.3066Z" fill="#666666"/>
<path d="M7.59094 13.3066C7.38348 13.3066 7.21594 13.1389 7.21594 12.9316C7.21594 12.3113 6.71112 11.8066 6.09131 11.8066C5.88403 11.8066 5.71631 11.6389 5.71631 11.4316C5.71631 11.2242 5.88403 11.0566 6.09131 11.0566C7.12512 11.0566 7.96594 11.8976 7.96594 12.9316C7.96594 13.1389 7.7984 13.3066 7.59094 13.3066Z" fill="#666666"/>
<path d="M4.21509 12.3148C4.00763 12.3148 3.84009 12.147 3.84009 11.9398V9.93164C3.84009 9.72418 4.00763 9.55664 4.21509 9.55664C4.42236 9.55664 4.59009 9.72418 4.59009 9.93164V11.9398C4.59009 12.147 4.42236 12.3148 4.21509 12.3148Z" fill="#666666"/>
<path d="M7.21436 12.3148C7.0069 12.3148 6.83936 12.147 6.83936 11.9398V9.93164C6.83936 9.72418 7.0069 9.55664 7.21436 9.55664C7.42163 9.55664 7.58936 9.72418 7.58936 9.93164V11.9398C7.58936 12.147 7.42163 12.3148 7.21436 12.3148Z" fill="#666666"/>
<path d="M4.96582 10.6824C4.75836 10.6824 4.59082 10.5146 4.59082 10.3074V9.18164C4.59082 8.97418 4.75836 8.80664 4.96582 8.80664C5.17328 8.80664 5.34082 8.97418 5.34082 9.18164V10.3074C5.34082 10.5146 5.17328 10.6824 4.96582 10.6824Z" fill="#666666"/>
<path d="M6.46582 9.55664H4.96582C4.75836 9.55664 4.59082 9.38892 4.59082 9.18164C4.59082 8.97418 4.75836 8.80664 4.96582 8.80664H6.46582C6.67328 8.80664 6.84082 8.97418 6.84082 9.18164C6.84082 9.38892 6.67328 9.55664 6.46582 9.55664Z" fill="#666666"/>
<path d="M6.46582 10.6824C6.25836 10.6824 6.09082 10.5146 6.09082 10.3074V9.18164C6.09082 8.97418 6.25836 8.80664 6.46582 8.80664C6.67328 8.80664 6.84082 8.97418 6.84082 9.18164V10.3074C6.84082 10.5146 6.67328 10.6824 6.46582 10.6824Z" fill="#666666"/>
<path d="M4.96582 10.3066H4.21509C4.00763 10.3066 3.84009 10.1389 3.84009 9.93164C3.84009 9.72418 4.00763 9.55664 4.21509 9.55664H4.96582C5.17328 9.55664 5.34082 9.72418 5.34082 9.93164C5.34082 10.1389 5.17328 10.3066 4.96582 10.3066Z" fill="#666666"/>
<path d="M7.21436 10.3066H6.46582C6.25836 10.3066 6.09082 10.1389 6.09082 9.93164C6.09082 9.72418 6.25836 9.55664 6.46582 9.55664H7.21436C7.42163 9.55664 7.58936 9.72418 7.58936 9.93164C7.58936 10.1389 7.42163 10.3066 7.21436 10.3066Z" fill="#666666"/>
<path d="M6.09131 11.8066H5.33984C5.13239 11.8066 4.96484 11.6389 4.96484 11.4316C4.96484 11.2242 5.13239 11.0566 5.33984 11.0566H6.09131C6.29877 11.0566 6.46631 11.2242 6.46631 11.4316C6.46631 11.6389 6.29877 11.8066 6.09131 11.8066Z" fill="#666666"/>
<path d="M8.71509 13.3066C8.50763 13.3066 8.34009 13.1389 8.34009 12.9316C8.34009 11.8976 9.18091 11.0566 10.2147 11.0566C10.422 11.0566 10.5897 11.2242 10.5897 11.4316C10.5897 11.6389 10.422 11.8066 10.2147 11.8066C9.59491 11.8066 9.09009 12.3113 9.09009 12.9316C9.09009 13.1389 8.92236 13.3066 8.71509 13.3066Z" fill="#666666"/>
<path d="M12.4659 13.3066C12.2585 13.3066 12.0909 13.1389 12.0909 12.9316C12.0909 12.3113 11.5861 11.8066 10.9663 11.8066C10.759 11.8066 10.5913 11.6389 10.5913 11.4316C10.5913 11.2242 10.759 11.0566 10.9663 11.0566C12.0001 11.0566 12.8409 11.8976 12.8409 12.9316C12.8409 13.1389 12.6734 13.3066 12.4659 13.3066Z" fill="#666666"/>
<path d="M9.09009 12.3148C8.88263 12.3148 8.71509 12.147 8.71509 11.9398V9.93164C8.71509 9.72418 8.88263 9.55664 9.09009 9.55664C9.29736 9.55664 9.46509 9.72418 9.46509 9.93164V11.9398C9.46509 12.147 9.29736 12.3148 9.09009 12.3148Z" fill="#666666"/>
<path d="M12.0894 12.3148C11.8819 12.3148 11.7144 12.147 11.7144 11.9398V9.93164C11.7144 9.72418 11.8819 9.55664 12.0894 9.55664C12.2966 9.55664 12.4644 9.72418 12.4644 9.93164V11.9398C12.4644 12.147 12.2966 12.3148 12.0894 12.3148Z" fill="#666666"/>
<path d="M9.84082 10.6824C9.63336 10.6824 9.46582 10.5146 9.46582 10.3074V9.18164C9.46582 8.97418 9.63336 8.80664 9.84082 8.80664C10.0483 8.80664 10.2158 8.97418 10.2158 9.18164V10.3074C10.2158 10.5146 10.0483 10.6824 9.84082 10.6824Z" fill="#666666"/>
<path d="M11.3408 9.55664H9.84082C9.63336 9.55664 9.46582 9.38892 9.46582 9.18164C9.46582 8.97418 9.63336 8.80664 9.84082 8.80664H11.3408C11.5483 8.80664 11.7158 8.97418 11.7158 9.18164C11.7158 9.38892 11.5483 9.55664 11.3408 9.55664Z" fill="#666666"/>
<path d="M11.3408 10.6824C11.1334 10.6824 10.9658 10.5146 10.9658 10.3074V9.18164C10.9658 8.97418 11.1334 8.80664 11.3408 8.80664C11.5483 8.80664 11.7158 8.97418 11.7158 9.18164V10.3074C11.7158 10.5146 11.5483 10.6824 11.3408 10.6824Z" fill="#666666"/>
<path d="M9.84082 10.3066H9.09009C8.88263 10.3066 8.71509 10.1389 8.71509 9.93164C8.71509 9.72418 8.88263 9.55664 9.09009 9.55664H9.84082C10.0483 9.55664 10.2158 9.72418 10.2158 9.93164C10.2158 10.1389 10.0483 10.3066 9.84082 10.3066Z" fill="#666666"/>
<path d="M12.0894 10.3066H11.3408C11.1334 10.3066 10.9658 10.1389 10.9658 9.93164C10.9658 9.72418 11.1334 9.55664 11.3408 9.55664H12.0894C12.2966 9.55664 12.4644 9.72418 12.4644 9.93164C12.4644 10.1389 12.2966 10.3066 12.0894 10.3066Z" fill="#666666"/>
<path d="M10.9663 11.8066H10.2148C10.0074 11.8066 9.83984 11.6389 9.83984 11.4316C9.83984 11.2242 10.0074 11.0566 10.2148 11.0566H10.9663C11.1738 11.0566 11.3413 11.2242 11.3413 11.4316C11.3413 11.6389 11.1738 11.8066 10.9663 11.8066Z" fill="#666666"/>
<path d="M12.4736 18.9324C12.2662 18.9324 12.0986 18.7646 12.0986 18.5574C12.0986 17.9366 12.6038 17.4316 13.2244 17.4316C13.4318 17.4316 13.5994 17.5992 13.5994 17.8066C13.5994 18.0139 13.4318 18.1816 13.2244 18.1816C13.0171 18.1816 12.8486 18.3499 12.8486 18.5574C12.8486 18.7646 12.6807 18.9324 12.4736 18.9324Z" fill="#666666"/>
<path d="M16.2249 18.9324C16.0176 18.9324 15.8499 18.7646 15.8499 18.5574C15.8499 18.3503 15.6819 18.1824 15.4749 18.1824C15.2676 18.1824 15.0999 18.0146 15.0999 17.8074C15.0999 17.5999 15.2676 17.4324 15.4749 17.4324C16.0952 17.4324 16.5999 17.937 16.5999 18.5574C16.5999 18.7646 16.4323 18.9324 16.2249 18.9324Z" fill="#666666"/>
<path d="M16.2247 19.6831H12.4736C12.2662 19.6831 12.0986 19.5156 12.0986 19.3081C12.0986 19.1006 12.2662 18.9331 12.4736 18.9331H16.2251C16.4326 18.9331 16.6001 19.1006 16.6001 19.3081C16.6001 19.5156 16.4322 19.6831 16.2247 19.6831Z" fill="#666666"/>
<path d="M15.5049 18.1816H13.1941C12.9868 18.1816 12.8191 18.0139 12.8191 17.8066C12.8191 17.5992 12.9868 17.4316 13.1941 17.4316H15.5049C15.7123 17.4316 15.8799 17.5992 15.8799 17.8066C15.8799 18.0139 15.7123 18.1816 15.5049 18.1816Z" fill="#666666"/>
<path d="M13.2236 18.1816C13.0162 18.1816 12.8486 18.0139 12.8486 17.8066V15.5574C12.8486 15.3499 13.0162 15.1824 13.2236 15.1824C13.4311 15.1824 13.5986 15.3499 13.5986 15.5574V17.8066C13.5986 18.0139 13.4311 18.1816 13.2236 18.1816Z" fill="#666666"/>
<path d="M15.4751 18.1824C15.2678 18.1824 15.1001 18.0146 15.1001 17.8074V15.5574C15.1001 15.3499 15.2678 15.1824 15.4751 15.1824C15.6826 15.1824 15.8501 15.3499 15.8501 15.5574V17.8074C15.8501 18.0146 15.6826 18.1824 15.4751 18.1824Z" fill="#666666"/>
<path d="M12.4736 19.6831C12.2662 19.6831 12.0986 19.5156 12.0986 19.3081V18.5574C12.0986 18.3499 12.2662 18.1824 12.4736 18.1824C12.6811 18.1824 12.8486 18.3499 12.8486 18.5574V19.3081C12.8486 19.5156 12.6807 19.6831 12.4736 19.6831Z" fill="#666666"/>
<path d="M16.2249 19.6831C16.0176 19.6831 15.8499 19.5156 15.8499 19.3081V18.5574C15.8499 18.3499 16.0176 18.1824 16.2249 18.1824C16.4323 18.1824 16.5999 18.3499 16.5999 18.5574V19.3081C16.5999 19.5156 16.4323 19.6831 16.2249 19.6831Z" fill="#666666"/>
<path d="M15.4751 15.9324H13.2236C13.0162 15.9324 12.8486 15.7646 12.8486 15.5574C12.8486 15.3499 13.0162 15.1824 13.2236 15.1824H15.4751C15.6826 15.1824 15.8501 15.3499 15.8501 15.5574C15.8501 15.7646 15.6826 15.9324 15.4751 15.9324Z" fill="#666666"/>
<path d="M15.8497 17.0574H12.8486C12.6412 17.0574 12.4736 16.8896 12.4736 16.6824C12.4736 16.4749 12.6412 16.3074 12.8486 16.3074H15.8497C16.0572 16.3074 16.2247 16.4749 16.2247 16.6824C16.2247 16.8896 16.0572 17.0574 15.8497 17.0574Z" fill="#666666"/>
<path d="M17.3486 18.9324C17.1412 18.9324 16.9736 18.7646 16.9736 18.5574C16.9736 17.9366 17.4788 17.4316 18.0994 17.4316C18.3068 17.4316 18.4744 17.5992 18.4744 17.8066C18.4744 18.0139 18.3068 18.1816 18.0994 18.1816C17.8921 18.1816 17.7236 18.3499 17.7236 18.5574C17.7236 18.7646 17.5557 18.9324 17.3486 18.9324Z" fill="#666666"/>
<path d="M21.0999 18.9324C20.8926 18.9324 20.7249 18.7646 20.7249 18.5574C20.7249 18.3503 20.5569 18.1824 20.3499 18.1824C20.1426 18.1824 19.9749 18.0146 19.9749 17.8074C19.9749 17.5999 20.1426 17.4324 20.3499 17.4324C20.9702 17.4324 21.4749 17.937 21.4749 18.5574C21.4749 18.7646 21.3073 18.9324 21.0999 18.9324Z" fill="#666666"/>
<path d="M21.0997 19.6831H17.3486C17.1412 19.6831 16.9736 19.5156 16.9736 19.3081C16.9736 19.1006 17.1412 18.9331 17.3486 18.9331H21.1001C21.3076 18.9331 21.4751 19.1006 21.4751 19.3081C21.4751 19.5156 21.3072 19.6831 21.0997 19.6831Z" fill="#666666"/>
<path d="M20.3799 18.1816H18.0691C17.8618 18.1816 17.6941 18.0139 17.6941 17.8066C17.6941 17.5992 17.8618 17.4316 18.0691 17.4316H20.3799C20.5873 17.4316 20.7549 17.5992 20.7549 17.8066C20.7549 18.0139 20.5873 18.1816 20.3799 18.1816Z" fill="#666666"/>
<path d="M18.0986 18.1816C17.8912 18.1816 17.7236 18.0139 17.7236 17.8066V15.5574C17.7236 15.3499 17.8912 15.1824 18.0986 15.1824C18.3061 15.1824 18.4736 15.3499 18.4736 15.5574V17.8066C18.4736 18.0139 18.3061 18.1816 18.0986 18.1816Z" fill="#666666"/>
<path d="M20.3501 18.1824C20.1428 18.1824 19.9751 18.0146 19.9751 17.8074V15.5574C19.9751 15.3499 20.1428 15.1824 20.3501 15.1824C20.5576 15.1824 20.7251 15.3499 20.7251 15.5574V17.8074C20.7251 18.0146 20.5576 18.1824 20.3501 18.1824Z" fill="#666666"/>
<path d="M17.3486 19.6831C17.1412 19.6831 16.9736 19.5156 16.9736 19.3081V18.5574C16.9736 18.3499 17.1412 18.1824 17.3486 18.1824C17.5561 18.1824 17.7236 18.3499 17.7236 18.5574V19.3081C17.7236 19.5156 17.5557 19.6831 17.3486 19.6831Z" fill="#666666"/>
<path d="M21.0999 19.6831C20.8926 19.6831 20.7249 19.5156 20.7249 19.3081V18.5574C20.7249 18.3499 20.8926 18.1824 21.0999 18.1824C21.3073 18.1824 21.4749 18.3499 21.4749 18.5574V19.3081C21.4749 19.5156 21.3073 19.6831 21.0999 19.6831Z" fill="#666666"/>
<path d="M20.3501 15.9324H18.0986C17.8912 15.9324 17.7236 15.7646 17.7236 15.5574C17.7236 15.3499 17.8912 15.1824 18.0986 15.1824H20.3501C20.5576 15.1824 20.7251 15.3499 20.7251 15.5574C20.7251 15.7646 20.5576 15.9324 20.3501 15.9324Z" fill="#666666"/>
<path d="M20.7247 17.0574H17.7236C17.5162 17.0574 17.3486 16.8896 17.3486 16.6824C17.3486 16.4749 17.5162 16.3074 17.7236 16.3074H20.7247C20.9322 16.3074 21.0997 16.4749 21.0997 16.6824C21.0997 16.8896 20.9322 17.0574 20.7247 17.0574Z" fill="#666666"/>
</g>
<defs>
<clipPath id="clip0_50_170">
<rect width="24" height="24" fill="white" transform="translate(0.46582 0.738037)"/>
</clipPath>
</defs>
</svg>
